<svg width="19" height="19" viewBox="0 0 19 19" fill="none" xmlns="http://www.w3.org/2000/svg">
<path d="M18.1733 6.62854L12.941 6.13379C12.6112 6.10381 12.3262 5.89391 12.1914 5.57907L10.3173 1.03634C10.0174 0.286715 8.95281 0.286715 8.65296 1.03634L6.79388 5.57907C6.67393 5.89391 6.37408 6.10381 6.04424 6.13379L0.81182 6.62854C0.0322038 6.70351 -0.282641 7.67802 0.302071 8.20276L4.24513 11.666C4.50001 11.8909 4.60495 12.2207 4.52999 12.5506L3.34557 17.408C3.16566 18.1728 3.99026 18.8023 4.67992 18.3977L9.04277 15.8338C9.32763 15.6689 9.67246 15.6689 9.95732 15.8338L14.3203 18.3977C15.01 18.8023 15.8346 18.1878 15.6545 17.408L14.4851 12.5506C14.4101 12.2207 14.5151 11.8909 14.7699 11.666L18.713 8.20276C19.2827 7.67802 18.9529 6.70351 18.1733 6.62854Z" fill="#00D7FF"/>
</svg>
